<svg width="195" height="50" viewBox="0 0 195 50" fill="none" xmlns="http://www.w3.org/2000/svg">
<path d="M66.8757 41.341C64.7599 41.341 62.9627 40.977 61.4839 40.249C60.0279 39.4983 58.9132 38.4404 58.1397 37.0754C57.3662 35.6876 56.9339 34.0269 56.8429 32.0931C56.8202 31.1604 56.8088 30.1594 56.8088 29.0901C56.8088 28.0209 56.8202 26.9971 56.8429 26.0189C56.9339 24.1079 57.3662 22.4585 58.1397 21.0708C58.9359 19.683 60.0621 18.6251 61.5181 17.8971C62.9968 17.1464 64.7827 16.771 66.8757 16.771C68.4227 16.771 69.8104 16.9758 71.0389 17.3853C72.2674 17.7948 73.3139 18.3635 74.1784 19.0915C75.0429 19.7968 75.7141 20.6271 76.1918 21.5826C76.6696 22.5381 76.9198 23.5733 76.9426 24.688C76.9653 24.8928 76.8971 25.0634 76.7378 25.1999C76.6013 25.3364 76.4307 25.4046 76.2259 25.4046H72.9841C72.7338 25.4046 72.5291 25.3478 72.3698 25.234C72.2106 25.0975 72.0968 24.8814 72.0286 24.5856C71.6646 23.0841 71.0389 22.0604 70.1517 21.5144C69.2644 20.9684 68.1611 20.6954 66.8416 20.6954C65.3173 20.6954 64.1002 21.1276 63.1902 21.9921C62.2802 22.8339 61.7911 24.233 61.7228 26.1895C61.6546 28.055 61.6546 29.966 61.7228 31.9225C61.7911 33.879 62.2802 35.2895 63.1902 36.154C64.1002 36.9958 65.3173 37.4166 66.8416 37.4166C68.1611 37.4166 69.2644 37.1436 70.1517 36.5976C71.0389 36.0289 71.6646 35.0051 72.0286 33.5264C72.0968 33.2079 72.2106 32.9918 72.3698 32.878C72.5291 32.7643 72.7338 32.7074 72.9841 32.7074H76.2259C76.4307 32.7074 76.6013 32.7756 76.7378 32.9121C76.8971 33.0486 76.9653 33.2193 76.9426 33.424C76.9198 34.5388 76.6696 35.5739 76.1918 36.5294C75.7141 37.4849 75.0429 38.3266 74.1784 39.0546C73.3139 39.7599 72.2674 40.3173 71.0389 40.7268C69.8104 41.1363 68.4227 41.341 66.8757 41.341ZM80.0341 40.9998C79.7838 40.9998 79.5791 40.9201 79.4198 40.7609C79.2606 40.6016 79.1809 40.3969 79.1809 40.1466V38.0309C79.1809 37.5304 79.4426 37.2574 79.9658 37.2119C80.6483 37.1664 81.1943 36.8479 81.6038 36.2564C82.0133 35.6649 82.3091 34.7549 82.4911 33.5264C82.6731 32.2751 82.7641 30.6599 82.7641 28.6806V24.0738C82.7641 23.8463 82.8437 23.6529 83.0029 23.4936C83.1622 23.3344 83.3669 23.2548 83.6172 23.2548H95.7316C95.9591 23.2548 96.1524 23.3344 96.3117 23.4936C96.4709 23.6529 96.5506 23.8463 96.5506 24.0738V40.1808C96.5506 40.4083 96.4709 40.6016 96.3117 40.7609C96.1524 40.9201 95.9591 40.9998 95.7316 40.9998H92.8992C92.6489 40.9998 92.4442 40.9201 92.2849 40.7609C92.1484 40.6016 92.0802 40.4083 92.0802 40.1808V26.872H87.0638V29.1584C87.0638 31.3424 86.9387 33.1965 86.6884 34.7208C86.4609 36.2223 86.0628 37.4394 85.4941 38.3721C84.9481 39.2821 84.2201 39.9533 83.3101 40.3855C82.4228 40.795 81.3308 40.9998 80.0341 40.9998ZM108.99 41.341C107.17 41.341 105.635 41.0225 104.384 40.3855C103.155 39.7485 102.211 38.8499 101.551 37.6896C100.914 36.5294 100.55 35.1758 100.459 33.6288C100.436 33.2193 100.425 32.7188 100.425 32.1273C100.425 31.5358 100.436 31.0353 100.459 30.6258C100.55 29.056 100.926 27.7024 101.585 26.5649C102.268 25.4046 103.223 24.506 104.452 23.869C105.703 23.232 107.216 22.9135 108.99 22.9135C110.765 22.9135 112.266 23.232 113.495 23.869C114.746 24.506 115.702 25.4046 116.361 26.5649C117.044 27.7024 117.431 29.056 117.522 30.6258C117.544 31.0353 117.556 31.5358 117.556 32.1273C117.556 32.7188 117.544 33.2193 117.522 33.6288C117.431 35.1758 117.055 36.5294 116.396 37.6896C115.759 38.8499 114.814 39.7485 113.563 40.3855C112.335 41.0225 110.81 41.341 108.99 41.341ZM108.99 37.9626C110.196 37.9626 111.129 37.5873 111.789 36.8365C112.448 36.063 112.812 34.9369 112.881 33.4581C112.903 33.1169 112.915 32.6733 112.915 32.1273C112.915 31.5813 112.903 31.1376 112.881 30.7964C112.812 29.3404 112.448 28.2256 111.789 27.4521C111.129 26.6786 110.196 26.2919 108.99 26.2919C107.785 26.2919 106.852 26.6786 106.192 27.4521C105.532 28.2256 105.168 29.3404 105.1 30.7964C105.077 31.1376 105.066 31.5813 105.066 32.1273C105.066 32.6733 105.077 33.1169 105.1 33.4581C105.168 34.9369 105.532 36.063 106.192 36.8365C106.852 37.5873 107.785 37.9626 108.99 37.9626ZM122.156 40.9998C121.928 40.9998 121.735 40.9201 121.576 40.7609C121.416 40.6016 121.337 40.4083 121.337 40.1808V24.0738C121.337 23.8463 121.416 23.6529 121.576 23.4936C121.735 23.3344 121.928 23.2548 122.156 23.2548H124.988C125.238 23.2548 125.432 23.3344 125.568 23.4936C125.728 23.6529 125.807 23.8463 125.807 24.0738V30.1821H133.519V24.0738C133.519 23.8463 133.599 23.6529 133.758 23.4936C133.918 23.3344 134.111 23.2548 134.338 23.2548H137.171C137.398 23.2548 137.592 23.3344 137.751 23.4936C137.91 23.6529 137.99 23.8463 137.99 24.0738V40.1808C137.99 40.4083 137.91 40.6016 137.751 40.7609C137.592 40.9201 137.398 40.9998 137.171 40.9998H134.338C134.111 40.9998 133.918 40.9201 133.758 40.7609C133.599 40.6016 133.519 40.4083 133.519 40.1808V33.7653H125.807V40.1808C125.807 40.4083 125.728 40.6016 125.568 40.7609C125.432 40.9201 125.238 40.9998 124.988 40.9998H122.156Z" fill="#1F1D2A"/>
<path d="M145.061 40.9998C144.834 40.9998 144.64 40.9315 144.481 40.795C144.344 40.6358 144.276 40.4424 144.276 40.2149V38.7816C144.276 38.5314 144.344 38.338 144.481 38.2015C144.64 38.0423 144.834 37.9626 145.061 37.9626H146.255C146.983 37.9626 147.609 37.792 148.132 37.4508C148.656 37.0868 149.145 36.5294 149.6 35.7786C150.077 35.0279 150.567 34.0496 151.067 32.8439L157.721 17.6924C157.79 17.4876 157.903 17.3398 158.063 17.2488C158.222 17.1578 158.393 17.1123 158.575 17.1123H160.417C160.599 17.1123 160.759 17.1805 160.895 17.317C161.032 17.4535 161.1 17.6128 161.1 17.7948C161.1 17.8858 161.088 17.9768 161.066 18.0678C161.066 18.136 161.043 18.2043 160.997 18.2725L154.036 34.0383C153.49 35.244 152.978 36.2905 152.5 37.1778C152.023 38.0423 151.511 38.7589 150.965 39.3276C150.419 39.8964 149.782 40.3173 149.054 40.5903C148.326 40.8633 147.45 40.9998 146.426 40.9998H145.061ZM150.862 35.1985L141.546 18.2043C141.478 18.0678 141.444 17.9426 141.444 17.8289C141.444 17.6469 141.512 17.4876 141.649 17.3511C141.808 17.1919 141.978 17.1123 142.16 17.1123H144.071C144.276 17.1123 144.447 17.1578 144.583 17.2488C144.72 17.3398 144.834 17.4876 144.925 17.6924L152.671 31.786L150.862 35.1985ZM164.849 40.9998C164.622 40.9998 164.428 40.9315 164.269 40.795C164.132 40.6358 164.064 40.4424 164.064 40.2149V17.9313C164.064 17.681 164.132 17.4876 164.269 17.3511C164.428 17.1919 164.622 17.1123 164.849 17.1123H166.555C166.828 17.1123 167.033 17.1805 167.17 17.317C167.306 17.4535 167.386 17.5673 167.408 17.6583L174.643 31.4448L181.912 17.6583C181.957 17.5673 182.037 17.4535 182.15 17.317C182.287 17.1805 182.492 17.1123 182.765 17.1123H184.437C184.687 17.1123 184.88 17.1919 185.017 17.3511C185.176 17.4876 185.256 17.681 185.256 17.9313V40.2149C185.256 40.4424 185.176 40.6358 185.017 40.795C184.88 40.9315 184.687 40.9998 184.437 40.9998H182.765C182.537 40.9998 182.344 40.9315 182.185 40.795C182.048 40.6358 181.98 40.4424 181.98 40.2149V23.4254L176.281 34.5501C176.19 34.7776 176.053 34.9596 175.871 35.0961C175.689 35.2099 175.462 35.2668 175.189 35.2668H174.131C173.835 35.2668 173.596 35.2099 173.414 35.0961C173.255 34.9596 173.119 34.7776 173.005 34.5501L167.306 23.4254V40.2149C167.306 40.4424 167.226 40.6358 167.067 40.795C166.931 40.9315 166.749 40.9998 166.521 40.9998H164.849Z" fill="#FF652F"/>
<path d="M24.3079 48.6008C10.4629 48.6008 3.34244 28.6898 6.50744 22.6298C7.78394 20.1853 10.1129 22.4983 13.7894 19.5378C15.6139 18.0683 15.1734 15.5078 15.1764 13.5543C15.1784 12.3818 16.5534 11.5353 17.7374 11.7543C19.0594 11.9988 20.3919 12.8773 22.5279 12.6263C25.0479 12.3303 26.6609 10.5258 29.1539 10.9913C31.2234 11.3773 29.8324 16.2753 36.9744 17.4488C39.3779 17.8438 37.8659 21.7228 39.6494 23.8123C41.1474 25.5673 43.0824 24.3728 44.3829 26.0933C45.9304 28.1408 44.1589 30.4353 43.4929 34.7503C41.8189 45.5933 35.4824 48.6008 24.3079 48.6008Z" fill="#FF672E"/>
<path d="M9.96253 8.65222C8.16553 8.84122 6.05953 11.6277 5.50653 14.3537C4.95353 17.0797 6.65553 19.1772 8.26803 18.8647C9.88053 18.5522 12.714 16.5167 13.178 14.2402C13.8655 10.8672 12.057 8.43222 9.96253 8.65222Z" fill="#14A76C"/>
<path d="M14.8863 7.4977C15.7158 9.7492 20.1278 9.6682 22.6388 9.2842C25.1498 8.9002 28.3908 7.5582 28.5773 5.4942C28.7638 3.4302 25.3268 1.2602 21.3748 1.9212C17.4228 2.5822 14.0568 5.2462 14.8863 7.4977Z" fill="#14A76C"/>
<path d="M39.1099 14.7667C37.3074 15.3647 35.9579 14.9132 33.2769 12.3652C30.5959 9.81725 30.8864 6.66475 32.4189 4.98875C33.9514 3.31275 37.2219 5.09875 38.7094 7.21875C40.1969 9.33875 40.9124 14.1687 39.1099 14.7667Z" fill="#14A76C"/>
<path d="M43.3393 23.1659C41.6713 23.0519 40.4633 21.9319 39.7978 20.3224C39.1323 18.7129 38.8898 16.6394 40.4923 15.6819C42.0948 14.7244 43.6963 17.3334 44.2373 19.0854C44.7783 20.8374 45.0073 23.2799 43.3393 23.1659Z" fill="#14A76C"/>
<path d="M24.8 26.1996C24.3395 28.7611 24.7925 29.2296 25.9315 29.6166C26.039 29.6611 26.106 29.6731 26.2575 29.6306C27.6195 28.0751 27.238 27.4011 26.687 26.1771C26.6195 25.9736 26.643 25.8941 26.699 25.7596C27.127 24.7501 27.356 24.1711 27.221 22.5081C27.202 22.3541 27.2045 22.2661 27.2755 22.0996C28.033 20.3201 27.8325 19.5521 25.572 18.8821C23.4925 18.9376 23.519 22.2861 24.7595 25.7351C24.8235 25.9131 24.832 26.0161 24.8 26.1996Z" fill="white"/>
<path d="M38.5896 29.1675C38.5766 28.727 38.4946 28.5589 38.2416 28.3724C37.5116 28.0194 37.0121 27.643 36.2721 27.9215C35.1501 28.343 34.7601 29.0635 35.4726 30.959C34.5701 31.3155 34.4021 31.694 34.6941 32.686C33.9906 33.046 33.6581 33.3265 33.2066 34.008C33.0826 34.1275 32.9801 34.1589 32.7556 34.1325C31.7056 33.457 31.1221 33.0525 30.1766 31.8815C30.0201 31.6435 29.9936 31.5055 29.9541 31.259C30.9341 30.389 31.3481 29.794 31.0071 27.8819C31.1046 27.3835 31.2701 27.1754 31.5306 26.7224C31.8841 25.8184 31.9911 25.2395 32.0061 24.064C32.1001 23.605 32.1696 23.3475 32.3641 22.888C32.3981 22.3185 32.3581 22.016 31.9416 21.575C31.6676 21.272 31.4221 21.1305 30.7521 20.95C30.2181 21.0195 29.9466 21.1415 29.4961 21.462C29.0951 21.942 29.0681 22.3625 29.3481 23.367C29.1321 24.492 29.0731 25.2275 29.6891 27.7685C28.8716 28.748 28.6386 29.301 29.3411 30.9925C29.4971 31.5915 27.3056 30.8285 26.4781 30.4355C26.1421 30.4699 25.9846 30.536 25.7471 30.72C25.1481 30.649 24.8271 30.4544 24.1951 30.7129C23.5426 30.5404 23.1761 30.548 22.5226 30.5525C22.4861 30.507 22.4791 30.4655 22.4776 30.3785C22.9496 29.6205 23.2426 29.2245 22.4676 27.1705C22.6826 26.244 22.6376 25.73 22.1791 24.8265C22.1661 24.582 22.1566 24.4445 22.0081 24.1695C22.3346 22.795 22.1911 21.7455 21.0031 21.5465C20.0351 20.612 18.2481 20.939 19.0221 24.1435C19.0611 24.1575 19.5121 26.5175 19.8506 26.9395C20.1891 27.3615 20.4461 27.727 20.3836 28.367C20.4486 29.6335 20.5971 30.605 21.6966 30.781C21.7976 30.8595 21.8296 30.9135 21.8236 31.036C21.8236 31.036 20.5446 31.8445 21.2896 33.8555C21.0271 35.399 19.5516 36.3029 19.0846 35.7479C18.5481 35.0294 18.4641 34.1375 17.9426 33.6805C17.4316 31.5635 15.1301 30.9965 14.4666 31.697C14.4666 31.697 14.2326 31.8029 14.5416 32.5259C15.2271 33.7664 15.4161 34.3014 16.2181 35.254C16.8761 36.0349 17.4961 36.103 18.1291 37.0264C18.0541 37.364 18.0476 37.5905 18.1176 38.0655C18.6361 39.7405 19.1021 40.6069 19.7556 42.1919C20.1151 42.7619 20.3441 42.9884 20.7741 43.32C20.7741 43.32 21.9296 43.8925 23.0081 43.7815C24.0866 43.6705 24.5061 42.4984 24.5061 42.4984C24.9511 41.8239 25.1731 41.443 25.3781 40.746C25.6921 39.5114 25.7211 38.83 25.0591 37.6644C25.1066 36.5325 25.4721 35.7165 26.8831 36.706C27.7931 36.8425 28.1026 37.427 28.2906 39.4044C27.9216 40.7944 27.9521 41.585 28.0996 42.9995C28.3931 43.7695 28.7311 43.955 29.6326 43.8615C30.9426 42.6299 34.2211 36.9185 33.7536 35.4125C34.0881 35.3415 34.2771 35.276 34.6161 35.092C37.2056 33.03 41.0566 30.3725 38.5896 29.1675Z" fill="white"/>
</svg>
