<svg width="110" height="65" viewBox="0 0 110 65" fill="none" xmlns="http://www.w3.org/2000/svg">
<path fill-rule="evenodd" clip-rule="evenodd" d="M22.3108 38.8307L109.999 0L33.7613 46.2358L31.745 65L22.3108 38.8307Z" fill="#BEB58E"/>
<path d="M31.745 65L45.2115 53.641L33.7613 46.2358L31.745 65Z" fill="#716B44"/>
<path d="M1.30268 25.2881L105.069 1.63677L22.3489 38.2668L1.30268 25.2881Z" fill="#EEECDB" stroke="#BEB58E"/>
<path d="M107.713 1.97206L58.2671 61.5277L34.7015 46.2501L107.713 1.97206Z" fill="#EEECDB" stroke="#BEB58E"/>
<path d="M75.6158 20.8574C79.0389 25.8731 76.4022 34.603 69.2751 40.6647C58.3613 49.9471 47.713 47.4601 42.2924 41.055L75.6158 20.8574Z" fill="#FFD84E"/>
<path d="M56.4034 49.596L56.5617 58.1063" stroke="#FFCD4E" stroke-width="2" stroke-linecap="round"/>
<path d="M43.8988 45.2247L40.2613 48.3775" stroke="#FFCD4E" stroke-width="2" stroke-linecap="round"/>
<path d="M88.4331 16.6508L80.2684 20.5794" stroke="#FFCD4E" stroke-width="2" stroke-linecap="round"/>
<path d="M71.1337 40.7773L72.7671 42.4876" stroke="#FFCD4E" stroke-width="2" stroke-linecap="round"/>
<path d="M79.5095 28.2681L84.0074 28.7682" stroke="#FFCD4E" stroke-width="2" stroke-linecap="round"/>
<path d="M33.7941 33.7467C34.8415 27.1573 41.6024 23.4704 48.4138 20.4635C53.8928 18.0448 66.2781 15.0769 70.276 17.5938L33.7941 33.7467Z" fill="#FFD84E"/>
<path d="M40.7618 41.98C38.9217 41.0586 35.1596 36.8125 33.7941 33.7467L70.276 17.5938C71.8815 18.799 73.4345 20.7747 73.9058 21.8825L40.7618 41.98Z" fill="#C5992A"/>
<path d="M33.4433 27.4605L23.839 24.721" stroke="#FFCD4E" stroke-width="2" stroke-linecap="round"/>
<path d="M69.4118 10.7981L66.9715 14.8151" stroke="#FFCD4E" stroke-width="2" stroke-linecap="round"/>
<path d="M56.3439 13.7679L56.5062 15.7035" stroke="#FFCD4E" stroke-width="2" stroke-linecap="round"/>
<path d="M42.4631 17.8222L44.054 19.6642" stroke="#FFCD4E" stroke-width="2" stroke-linecap="round"/>
<path d="M18.6081 32.2482C19.365 31.9474 19.3628 32.8927 18.6058 33.1935C17.8493 33.3053 17.8511 32.549 18.6081 32.2482Z" fill="#E0CAEF"/>
<path d="M29.6093 21.4567C29.9551 21.3193 29.9541 21.7511 29.6083 21.8885C29.2627 21.9396 29.2636 21.5941 29.6093 21.4567Z" fill="#E0CAEF"/>
<path d="M46.9557 49.8394C47.7127 49.5386 47.7104 50.4839 46.9535 50.7847C46.197 50.8965 46.1988 50.1402 46.9557 49.8394Z" fill="#E0CAEF"/>
<path d="M26.6656 32.4497C26.9179 32.3494 26.9179 32.3494 26.6656 32.4497C27.6735 32.6158 26.4105 33.6844 25.9072 33.3177C25.9072 33.3177 25.9077 33.1286 25.6554 33.2289C25.1517 33.0513 26.4141 32.1718 26.6656 32.4497Z" fill="#E0CAEF"/>
<path d="M85.5689 7.4182C85.8212 7.31792 85.8212 7.31792 85.5689 7.4182C86.5768 7.58429 85.3138 8.65287 84.8105 8.28623C84.8105 8.28623 84.8111 8.09712 84.5587 8.1974C84.055 8.01982 85.3175 7.14034 85.5689 7.4182Z" fill="#E0CAEF"/>
<path d="M94.8175 11.2173C95.0151 11.0452 95.0151 11.0452 94.8175 11.2173C96.1428 11.1019 95.6898 12.5358 94.7596 12.3069C94.7596 12.3069 94.5814 12.1158 94.3838 12.2879C93.632 12.25 94.2633 11.0073 94.8175 11.2173Z" fill="#E0CAEF"/>
<path d="M15.5559 25.162C15.8082 25.0617 15.8082 25.0617 15.5559 25.162C16.5638 25.3281 15.3009 26.3966 14.7976 26.03C14.7976 26.03 14.7981 25.8409 14.5458 25.9412C14.0421 25.7636 15.3045 24.8841 15.5559 25.162Z" fill="#E0CAEF"/>
<path d="M88.8279 20.563C89.4207 20.0466 90.1339 20.8108 89.5411 21.3272C88.9483 21.8436 88.2351 21.0794 88.8279 20.563Z" fill="#E0CAEF"/>
<path d="M34.7049 19.8844C35.4454 19.2394 36.3363 20.194 35.5958 20.8391C34.8554 21.4842 33.9644 20.5295 34.7049 19.8844Z" fill="#E0CAEF"/>
<path d="M62.1282 50.2276C62.7209 49.7112 63.4342 50.4755 62.8414 50.9919C62.2486 51.5083 61.5354 50.744 62.1282 50.2276Z" fill="#E0CAEF"/>
<path d="M73.9494 12.7329C74.7063 12.4321 74.7045 13.1884 73.9476 13.4892C73.1906 13.79 73.1925 13.0338 73.9494 12.7329Z" fill="#E0CAEF"/>
</svg>
